<svg width="412" height="432" viewBox="0 0 412 432" fill="none" xmlns="http://www.w3.org/2000/svg">
<g clip-path="url(#clip0_81_296)">
<g clip-path="url(#clip1_81_296)">
<path fill-rule="evenodd" clip-rule="evenodd" d="M136.718 205.822C151.669 217.712 173.427 215.23 185.317 200.279C197.207 185.328 194.725 163.569 179.774 151.679C164.823 139.789 143.065 142.271 131.175 157.222C119.285 172.173 121.767 193.932 136.718 205.822ZM200.971 212.727C182.206 236.324 147.865 240.24 124.269 221.475C100.673 202.71 96.7562 168.37 115.521 144.774C134.286 121.177 168.627 117.261 192.223 136.026C215.819 154.791 219.736 189.131 200.971 212.727Z" fill="#252B2F"/>
<path fill-rule="evenodd" clip-rule="evenodd" d="M262.422 177.773C277.681 202.064 276.845 234.306 257.961 258.052C239.08 281.795 207.821 289.891 180.734 280.487L187.294 261.593C206.604 268.297 228.871 262.5 242.308 245.604C255.742 228.711 256.374 205.744 245.487 188.412L262.422 177.773Z" fill="#252B2F"/>
<path fill-rule="evenodd" clip-rule="evenodd" d="M312.986 173.715C327.859 210.889 322.922 254.836 296.189 288.452C269.455 322.069 227.749 336.775 188.18 330.655L191.237 310.89C223.997 315.956 258.451 303.773 280.535 276.004C302.619 248.234 306.731 211.921 294.417 181.144L312.986 173.715Z" fill="#252B2F"/>
<path d="M297.401 57.6961L244.869 15.9199L226.752 38.701L279.285 80.4772L297.401 57.6961Z" fill="#252B2F"/>
<path d="M272.614 88.866L220.082 47.0898L201.965 69.871L254.498 111.647L272.614 88.866Z" fill="#252B2F"/>
<path d="M247.825 120.036L195.293 78.2598L177.176 101.041L229.708 142.817L247.825 120.036Z" fill="#252B2F"/>
<path d="M140.245 255.315L87.7129 213.539L69.5962 236.32L122.128 278.096L140.245 255.315Z" fill="#252B2F"/>
<path d="M115.456 286.487L62.9238 244.711L44.8071 267.492L97.3393 309.268L115.456 286.487Z" fill="#252B2F"/>
<path d="M90.6689 317.657L38.1367 275.881L20.02 298.662L72.5522 340.438L90.6689 317.657Z" fill="#252B2F"/>
</g>
</g>
<defs>
<clipPath id="clip0_81_296">
<rect width="412" height="432" fill="white"/>
</clipPath>
<clipPath id="clip1_81_296">
<rect width="238.212" height="361.249" fill="white" transform="translate(224.852) rotate(38.4935)"/>
</clipPath>
</defs>
</svg>
